<?xml version="1.0" standalone="no"?>
<!DOCTYPE svg PUBLIC "-//W3C//DTD SVG 20010904//EN"
 "http://www.w3.org/TR/2001/REC-SVG-20010904/DTD/svg10.dtd">
<svg version="1.0" xmlns="http://www.w3.org/2000/svg"
 width="500.000000pt" height="500.000000pt" viewBox="0 0 500.000000 500.000000"
 preserveAspectRatio="xMidYMid meet">

<g transform="translate(0.000000,500.000000) scale(0.100000,-0.100000)"
fill="#000000" stroke="none">
<path d="M0 2500 l0 -2500 2500 0 2500 0 0 2500 0 2500 -2500 0 -2500 0 0
-2500z m2903 869 c172 -100 315 -186 319 -193 4 -6 8 -79 8 -161 l0 -151 -56
-32 c-31 -18 -60 -30 -65 -26 -5 3 -9 61 -9 129 0 69 -5 135 -11 148 -7 15
-46 45 -98 74 -47 28 -157 91 -244 142 -86 50 -168 91 -181 91 -27 0 -502
-271 -522 -298 -10 -13 -13 -85 -14 -308 0 -264 2 -294 18 -312 30 -36 484
-295 517 -295 21 0 100 40 255 130 124 72 236 140 250 151 23 18 25 28 30 123
l5 103 45 27 c82 50 80 53 80 -145 0 -127 -3 -176 -12 -184 -7 -6 -149 -89
-316 -186 -214 -124 -312 -176 -334 -176 -20 0 -80 28 -177 84 -334 193 -452
262 -471 278 -19 17 -20 29 -20 401 0 353 1 385 18 399 16 15 81 53 442 263
177 103 181 105 208 105 13 0 163 -81 335 -181z m-233 -135 c44 -25 80 -52 80
-59 0 -7 -23 -28 -51 -46 -46 -29 -54 -31 -83 -21 -18 7 -43 12 -57 12 -30 -1
-133 -61 -137 -81 -4 -20 105 -82 143 -82 19 0 77 27 163 78 147 86 148 86
228 33 l49 -33 3 -235 c1 -129 0 -244 -3 -256 -3 -15 -67 -57 -213 -143 -115
-66 -217 -121 -226 -121 -10 0 -111 55 -226 122 -143 83 -210 128 -214 142 -8
28 -8 330 0 350 9 22 19 20 80 -16 l54 -33 0 -116 c0 -81 4 -120 13 -127 25
-21 260 -152 282 -158 17 -4 62 17 169 78 l145 83 1 174 c0 153 -2 172 -16
167 -8 -3 -70 -38 -137 -78 -79 -46 -133 -71 -152 -71 -20 0 -90 35 -205 102
-96 57 -181 108 -189 116 -7 7 -10 21 -7 31 8 26 362 233 399 234 16 0 63 -20
107 -46z m-1250 -1574 l0 -30 -105 0 -105 0 0 -25 0 -25 105 0 105 0 0 -25 0
-25 -105 0 -105 0 0 -55 c0 -55 0 -55 -31 -55 l-31 0 4 121 c4 152 0 149 155
149 l113 0 0 -30z m110 -80 l0 -111 78 3 77 3 3 108 c3 106 3 107 27 107 l25
0 0 -117 c0 -154 1 -153 -136 -153 -133 0 -134 1 -134 157 l0 113 30 0 30 0 0
-110z m320 1 l0 -110 105 2 105 2 0 -27 0 -28 -119 0 c-153 0 -151 -2 -151
157 l0 113 30 0 30 0 0 -109z m322 2 l3 -108 102 0 103 0 0 -27 0 -28 -119 0
c-153 0 -151 -2 -151 157 l0 113 30 0 29 0 3 -107z m528 77 l0 -30 -105 0
-105 0 0 -25 c0 -25 1 -25 89 -25 108 0 121 -9 121 -80 0 -75 -10 -80 -151
-80 -119 0 -119 0 -119 24 0 28 32 36 148 36 70 0 73 1 70 23 -3 21 -8 22 -93
25 -108 3 -125 14 -125 79 0 73 18 83 155 83 l115 0 0 -30z m320 0 c0 -29 -1
-30 -50 -30 l-50 0 0 -105 0 -105 -30 0 -30 0 0 105 0 105 -55 0 c-54 0 -55 0
-55 30 l0 30 135 0 135 0 0 -30z m304 14 c13 -12 16 -40 16 -135 l0 -119 -24
0 c-23 0 -25 4 -28 53 l-3 52 -77 2 -78 2 0 -55 c0 -53 0 -54 -30 -54 l-30 0
0 115 c0 153 2 155 139 155 77 0 103 -4 115 -16z m336 -14 l0 -30 -105 0 -105
0 0 -75 0 -75 105 0 105 0 0 -30 0 -30 -117 0 c-153 0 -153 0 -153 132 0 136
3 138 155 138 l115 0 0 -30z m110 -25 c0 -38 4 -55 13 -55 7 0 37 25 67 55 47
47 60 55 92 55 36 0 38 -2 38 -30 0 -26 -4 -30 -27 -30 -18 0 -40 -13 -65 -37
l-38 -37 37 -38 c25 -26 46 -38 65 -38 24 0 28 -4 28 -30 0 -28 -2 -30 -38
-30 -32 0 -45 7 -87 50 -27 28 -57 50 -67 50 -15 0 -18 -9 -18 -50 0 -49 -1
-50 -30 -50 l-30 0 0 135 0 135 30 0 c30 0 30 -1 30 -55z"/>
<path d="M3130 1605 c0 -26 0 -26 78 -23 71 3 77 5 80 26 3 21 1 22 -77 22
-80 0 -81 0 -81 -25z"/>
</g>
</svg>
