<?xml version="1.0" standalone="no"?>
<!DOCTYPE svg PUBLIC "-//W3C//DTD SVG 20010904//EN"
 "http://www.w3.org/TR/2001/REC-SVG-20010904/DTD/svg10.dtd">
<svg version="1.0" xmlns="http://www.w3.org/2000/svg"
 width="844.000000pt" height="382.000000pt" viewBox="0 0 844.000000 382.000000"
 preserveAspectRatio="xMidYMid meet">

<g transform="translate(0.000000,382.000000) scale(0.100000,-0.100000)"
fill="#000000" stroke="none">
<path d="M0 1905 l0 -1905 4220 0 4220 0 0 1905 0 1905 -4220 0 -4220 0 0
-1905z m4127 845 c31 -11 53 -45 53 -81 0 -39 -40 -131 -83 -192 -139 -195
-366 -319 -442 -242 -114 113 208 503 431 524 6 1 25 -4 41 -9z m300 -17 c161
-67 348 -287 361 -424 4 -41 1 -51 -23 -75 -24 -23 -32 -26 -73 -21 -155 19
-373 211 -433 383 -30 85 -23 123 26 152 24 14 89 7 142 -15z m-207 -160 c0
-72 51 -179 117 -247 68 -70 194 -136 259 -136 13 0 26 -4 29 -10 4 -6 -6 -10
-23 -10 -36 0 -112 -26 -169 -58 -104 -58 -199 -196 -210 -307 -7 -67 -18 -64
-26 7 -9 71 -58 165 -120 228 -61 62 -175 121 -248 128 -50 5 -59 22 -11 22
108 1 262 102 325 214 31 56 57 132 57 168 0 15 5 28 10 28 6 0 10 -12 10 -27z
m-422 -441 c199 -76 421 -363 373 -480 -39 -95 -203 -46 -364 106 -226 216
-232 459 -9 374z m974 -14 c83 -108 -162 -434 -380 -504 -98 -31 -162 11 -148
99 24 152 233 373 405 428 44 14 103 3 123 -23z m227 -753 c16 -8 35 -29 44
-47 82 -176 117 -252 117 -259 0 -5 -22 -9 -50 -9 -45 0 -50 3 -56 25 -6 25
-8 25 -104 25 -96 0 -98 0 -104 -25 -6 -23 -11 -25 -61 -25 l-54 0 65 142 c35
78 70 148 76 156 27 32 83 40 127 17z m-2159 -35 l0 -40 -124 0 c-126 0 -136
-3 -136 -41 0 -4 57 -10 128 -11 l127 -3 3 -37 3 -37 -128 -3 -128 -3 -3 -52
-3 -53 -40 0 -39 0 0 148 c0 102 4 152 12 160 8 8 60 12 170 12 l158 0 0 -40z
m120 -67 c0 -60 4 -114 8 -121 6 -9 33 -12 98 -10 l89 3 3 118 3 117 45 0 46
0 -4 -136 c-3 -135 -3 -136 -31 -160 -27 -23 -35 -24 -157 -24 -122 0 -130 1
-157 24 -28 24 -28 25 -31 160 l-4 136 46 0 46 0 0 -107z m422 -10 l3 -118
128 -3 127 -3 0 -39 0 -40 -146 0 c-80 0 -154 5 -164 10 -28 15 -40 72 -40
198 l0 112 45 0 44 0 3 -117z m370 0 l3 -118 123 -3 122 -3 0 -39 0 -40 -139
0 c-77 0 -147 3 -156 6 -34 13 -45 58 -45 189 l0 125 45 0 44 0 3 -117z m628
77 l0 -40 -117 0 c-123 0 -150 -7 -140 -34 5 -13 24 -16 107 -16 99 0 102 -1
131 -29 21 -22 29 -39 29 -66 0 -27 -8 -44 -29 -66 l-29 -29 -151 0 -151 0 0
40 0 40 129 0 c131 0 155 6 131 35 -9 11 -36 15 -102 15 -103 0 -141 14 -156
59 -13 38 -6 69 26 104 l26 27 148 0 148 0 0 -40z m410 0 l0 -39 -72 -3 -73
-3 -3 -117 -3 -118 -39 0 -39 0 -3 118 -3 117 -72 3 -73 3 0 39 0 40 190 0
190 0 0 -40z m710 1 l0 -39 -106 -4 c-102 -3 -107 -5 -130 -31 -42 -48 -25
-99 37 -117 19 -6 71 -10 116 -10 l83 0 0 -41 0 -41 -124 4 c-135 3 -154 10
-200 72 -32 42 -29 132 6 178 43 56 77 68 206 68 l112 0 0 -39z m132 -22 l3
-61 77 61 c76 62 77 62 135 59 l58 -3 -93 -70 c-50 -38 -92 -72 -92 -75 0 -3
45 -41 100 -85 l99 -80 -64 -3 -65 -3 -77 66 -78 67 -3 -66 -3 -66 -44 0 -45
0 0 160 0 160 45 0 44 0 3 -61z"/>
<path d="M4915 1234 c-14 -31 -25 -58 -25 -60 0 -2 27 -4 60 -4 33 0 60 2 60
4 0 15 -52 116 -60 116 -6 0 -21 -25 -35 -56z"/>
</g>
</svg>
